<svg width="420.901" height="99.901" viewBox="0 0 420.901 99.901" xmlns="http://www.w3.org/2000/svg"><g id="svgGroup" stroke-linecap="round" fill-rule="evenodd" font-size="9pt" stroke="#000" stroke-width="0.25mm" fill="#000" style="stroke:#000;stroke-width:0.25mm;fill:#000"><path d="M 10.8 77 L 0 77 L 0 5 L 12.9 5 L 40.8 38.2 L 68.6 5 L 81.6 5 L 81.6 77 L 70.7 77 L 70.7 19.5 L 40.8 55.1 L 10.8 19.5 L 10.8 77 Z M 407.9 99.9 L 372.1 99.9 L 372.1 89 L 407.6 89 A 2.385 2.385 0 0 0 409.301 88.298 A 3.132 3.132 0 0 0 409.35 88.25 A 2.614 2.614 0 0 0 409.895 87.478 A 2.349 2.349 0 0 0 410.1 86.5 L 410.1 77 L 374.9 77 Q 371.4 77 368.4 75.25 Q 365.4 73.5 363.65 70.5 Q 361.9 67.5 361.9 64 L 361.9 32 A 12.337 12.337 0 0 1 362.871 27.09 A 11.888 11.888 0 0 1 363.7 25.5 Q 365.5 22.6 368.45 20.8 Q 371.4 19 374.9 19 L 407.9 19 Q 411.5 19 414.45 20.8 Q 417.4 22.6 419.15 25.5 A 12.262 12.262 0 0 1 420.896 31.664 A 14.613 14.613 0 0 1 420.9 32 L 420.9 86.9 Q 420.9 90.5 419.15 93.45 Q 417.4 96.4 414.45 98.15 Q 411.5 99.9 407.9 99.9 Z M 304.8 77 L 294 77 L 294 19 L 340 19 Q 343.6 19 346.55 20.8 Q 349.5 22.6 351.25 25.5 A 12.262 12.262 0 0 1 352.996 31.664 A 14.613 14.613 0 0 1 353 32 L 353 77 L 342.2 77 L 342.2 32.3 A 2.385 2.385 0 0 0 341.498 30.599 A 3.132 3.132 0 0 0 341.45 30.55 A 2.614 2.614 0 0 0 340.678 30.005 A 2.349 2.349 0 0 0 339.7 29.8 L 307.3 29.8 A 2.385 2.385 0 0 0 305.599 30.502 A 3.132 3.132 0 0 0 305.55 30.55 A 2.614 2.614 0 0 0 305.005 31.322 A 2.349 2.349 0 0 0 304.8 32.3 L 304.8 77 Z M 92.3 64 L 92.3 32 A 12.337 12.337 0 0 1 93.271 27.09 A 11.888 11.888 0 0 1 94.1 25.5 Q 95.9 22.6 98.8 20.8 A 12.052 12.052 0 0 1 105.188 19 A 14.33 14.33 0 0 1 105.3 19 L 138.3 19 Q 141.9 19 144.85 20.75 Q 147.8 22.5 149.55 25.5 Q 151.3 28.5 151.3 32 L 151.3 53.4 L 103.1 53.4 L 103.1 63.7 A 2.385 2.385 0 0 0 103.802 65.401 A 3.132 3.132 0 0 0 103.85 65.45 A 2.614 2.614 0 0 0 104.622 65.995 A 2.349 2.349 0 0 0 105.6 66.2 L 151.3 66.2 L 151.3 77 L 105.3 77 A 12.337 12.337 0 0 1 100.39 76.029 A 11.888 11.888 0 0 1 98.8 75.2 Q 95.9 73.4 94.1 70.5 A 12.052 12.052 0 0 1 92.3 64.112 A 14.33 14.33 0 0 1 92.3 64 Z M 159.6 64 L 159.6 32 A 12.337 12.337 0 0 1 160.571 27.09 A 11.888 11.888 0 0 1 161.4 25.5 Q 163.2 22.6 166.1 20.8 A 12.052 12.052 0 0 1 172.488 19 A 14.33 14.33 0 0 1 172.6 19 L 205.6 19 Q 209.2 19 212.15 20.75 Q 215.1 22.5 216.85 25.5 Q 218.6 28.5 218.6 32 L 218.6 53.4 L 170.4 53.4 L 170.4 63.7 A 2.385 2.385 0 0 0 171.102 65.401 A 3.132 3.132 0 0 0 171.15 65.45 A 2.614 2.614 0 0 0 171.922 65.995 A 2.349 2.349 0 0 0 172.9 66.2 L 218.6 66.2 L 218.6 77 L 172.6 77 A 12.337 12.337 0 0 1 167.69 76.029 A 11.888 11.888 0 0 1 166.1 75.2 Q 163.2 73.4 161.4 70.5 A 12.052 12.052 0 0 1 159.6 64.112 A 14.33 14.33 0 0 1 159.6 64 Z M 229 64 L 229 0.7 L 239.8 0.7 L 239.8 19 L 263.6 19 L 263.6 29.8 L 239.8 29.8 L 239.8 63.7 A 2.385 2.385 0 0 0 240.502 65.401 A 3.132 3.132 0 0 0 240.55 65.45 A 2.614 2.614 0 0 0 241.322 65.995 A 2.349 2.349 0 0 0 242.3 66.2 L 263.6 66.2 L 263.6 77 L 242 77 Q 238.4 77 235.45 75.2 Q 232.5 73.4 230.75 70.5 A 12.262 12.262 0 0 1 229.004 64.336 A 14.613 14.613 0 0 1 229 64 Z M 375.2 66.2 L 407.6 66.2 A 2.385 2.385 0 0 0 409.301 65.498 A 3.132 3.132 0 0 0 409.35 65.45 A 2.614 2.614 0 0 0 409.895 64.678 A 2.349 2.349 0 0 0 410.1 63.7 L 410.1 32.3 A 2.385 2.385 0 0 0 409.398 30.599 A 3.132 3.132 0 0 0 409.35 30.55 A 2.614 2.614 0 0 0 408.578 30.005 A 2.349 2.349 0 0 0 407.6 29.8 L 375.2 29.8 A 2.385 2.385 0 0 0 373.499 30.502 A 3.132 3.132 0 0 0 373.45 30.55 A 2.614 2.614 0 0 0 372.905 31.322 A 2.349 2.349 0 0 0 372.7 32.3 L 372.7 63.7 A 2.385 2.385 0 0 0 373.402 65.401 A 3.132 3.132 0 0 0 373.45 65.45 A 2.614 2.614 0 0 0 374.222 65.995 A 2.349 2.349 0 0 0 375.2 66.2 Z M 282.5 77 L 271.7 77 L 271.7 19 L 282.5 19 L 282.5 77 Z M 170.4 32.3 L 170.4 43.3 L 207.7 43.3 L 207.7 32.3 Q 207.7 31.3 207 30.55 A 2.356 2.356 0 0 0 206.202 29.977 A 2.272 2.272 0 0 0 205.3 29.8 L 172.9 29.8 A 2.385 2.385 0 0 0 171.199 30.502 A 3.132 3.132 0 0 0 171.15 30.55 A 2.614 2.614 0 0 0 170.605 31.322 A 2.349 2.349 0 0 0 170.4 32.3 Z M 103.1 32.3 L 103.1 43.3 L 140.4 43.3 L 140.4 32.3 Q 140.4 31.3 139.7 30.55 A 2.356 2.356 0 0 0 138.902 29.977 A 2.272 2.272 0 0 0 138 29.8 L 105.6 29.8 A 2.385 2.385 0 0 0 103.899 30.502 A 3.132 3.132 0 0 0 103.85 30.55 A 2.614 2.614 0 0 0 103.305 31.322 A 2.349 2.349 0 0 0 103.1 32.3 Z M 282.5 10.8 L 271.7 10.8 L 271.7 0 L 282.5 0 L 282.5 10.8 Z" vector-effect="non-scaling-stroke"/></g></svg>